<svg xmlns="http://www.w3.org/2000/svg" xmlns:xlink="http://www.w3.org/1999/xlink" width="500" zoomAndPan="magnify" viewBox="0 0 375 374.999991" height="500" preserveAspectRatio="xMidYMid meet" version="1.0"><defs><g/><clipPath id="28ebd9f388"><path d="M 16 91 L 371 91 L 371 309 L 16 309 Z M 16 91 " clip-rule="nonzero"/></clipPath><clipPath id="c5a57a0467"><path d="M 4.820312 117.542969 L 364.929688 74.410156 L 388 267.042969 L 27.894531 310.175781 Z M 4.820312 117.542969 " clip-rule="nonzero"/></clipPath><clipPath id="aa12a89747"><path d="M 4.820312 117.542969 L 364.929688 74.410156 L 388 267.042969 L 27.894531 310.175781 Z M 4.820312 117.542969 " clip-rule="nonzero"/></clipPath></defs><g clip-path="url(#28ebd9f388)"><g clip-path="url(#c5a57a0467)"><g clip-path="url(#aa12a89747)"><path fill="#fd7018" d="M 104.785156 212.738281 L 104.515625 210.476562 C 97.820312 213.984375 91.25 217.5 84.617188 220.890625 C 78.78125 223.882812 72.773438 226.542969 66.5 228.484375 C 64.101562 229.230469 61.617188 229.863281 59.132812 230.097656 C 55.433594 230.441406 49.773438 229.078125 48.816406 224.371094 C 48.703125 223.796875 48.402344 223.1875 48.011719 222.753906 C 45.660156 220.167969 45.640625 217.171875 46.515625 213.738281 C 44.8125 214.105469 43.523438 214.894531 42.269531 215.632812 C 37.523438 218.449219 32.246094 219.84375 27.03125 221.40625 C 25.800781 221.773438 24.691406 221.4375 23.488281 221.15625 C 22.242188 220.855469 21.417969 220.441406 21.53125 219.019531 C 19.136719 218.511719 19.398438 215.863281 17.945312 214.585938 C 16.800781 213.578125 16.640625 212.15625 16.496094 210.753906 C 16.128906 207.253906 16.753906 203.917969 18.277344 200.753906 C 19.628906 197.941406 20.949219 195.101562 22.804688 192.566406 C 23.375 191.777344 23.789062 190.757812 25.074219 190.832031 C 25.304688 190.847656 25.777344 190.507812 25.761719 190.378906 C 25.390625 187.574219 28.148438 186.722656 29.265625 184.84375 C 30.4375 182.867188 32.457031 181.515625 34.128906 179.90625 C 38.929688 175.285156 44.101562 171.085938 49.273438 166.910156 C 57.988281 159.875 67.203125 153.558594 76.703125 147.621094 C 84.734375 142.597656 93.039062 138.089844 101.34375 133.539062 C 108.855469 129.410156 116.550781 125.695312 124.339844 122.144531 C 128.914062 120.058594 133.507812 117.894531 138.207031 116.230469 C 142.519531 114.699219 146.957031 113.304688 151.382812 112.011719 C 154.617188 111.066406 158.046875 110.90625 161.125 109.644531 C 165.109375 108.011719 169.4375 108.003906 173.441406 106.359375 C 176.300781 105.175781 179.503906 104.671875 182.382812 103.3125 C 184.425781 102.347656 186.726562 102.59375 188.894531 102.128906 C 192.746094 101.308594 196.007812 98.667969 200.117188 98.699219 C 200.640625 98.703125 201.214844 98.207031 201.695312 97.867188 C 203.214844 96.789062 204.898438 96.382812 206.734375 96.03125 C 209.488281 95.515625 212.148438 94.5 214.855469 93.707031 C 218.132812 92.746094 221.359375 91.703125 224.789062 91.207031 C 229.796875 90.476562 233.363281 92.460938 236.363281 96.113281 C 236.875 96.742188 237.347656 97.394531 237.839844 98.03125 C 238.535156 98.941406 239.164062 99.542969 240.589844 99.253906 C 242.539062 98.855469 243.261719 100.15625 242.382812 102.003906 C 241.617188 103.636719 240.28125 104.667969 238.785156 105.578125 C 234.289062 108.308594 229.4375 110.34375 224.730469 112.652344 C 221.9375 114.011719 219.152344 115.371094 216 116.914062 C 217.730469 118.160156 219.136719 117.882812 220.542969 117.507812 C 225.429688 116.199219 230.414062 115.570312 235.402344 114.851562 C 237.363281 114.574219 239.214844 114.898438 241.078125 115.351562 C 242.867188 115.78125 244.140625 116.402344 244.148438 118.738281 C 244.152344 120.699219 245.777344 122.132812 247.167969 123.449219 C 247.992188 124.234375 248.867188 124.890625 248.695312 126.199219 C 248.605469 126.886719 249.046875 127.292969 249.578125 127.65625 C 250.066406 127.988281 250.730469 128.335938 250.910156 128.824219 C 251.753906 131.148438 254.035156 131.320312 255.726562 132.425781 C 258.367188 134.164062 261.230469 133.917969 264.058594 134.222656 C 264.777344 134.300781 265.4375 134.429688 266.074219 134.765625 C 267.742188 135.636719 267.691406 135.847656 266.921875 137.546875 C 265.773438 140.082031 263.878906 141.554688 261.417969 142.777344 C 250.765625 148.109375 240.597656 154.3125 230.496094 160.617188 C 228.355469 161.957031 226.199219 163.261719 224.070312 164.617188 C 223.574219 164.9375 223.097656 165.324219 222.703125 165.761719 C 222.558594 165.933594 222.597656 166.355469 222.683594 166.617188 C 222.789062 166.941406 223.121094 166.980469 223.4375 166.886719 C 225.078125 166.394531 226.75 165.945312 228.097656 164.800781 C 230.078125 163.132812 232.273438 162.054688 234.886719 161.738281 C 236.058594 161.601562 237.207031 161.089844 238.335938 160.660156 C 239.597656 160.171875 240.695312 158.972656 242.242188 159.832031 C 244.023438 157.875 246.878906 158.851562 248.832031 157.472656 C 250.589844 156.226562 252.640625 155.957031 254.519531 155.222656 C 258.832031 153.515625 263.472656 153.023438 267.71875 151.109375 C 271.558594 149.371094 275.710938 148.4375 279.550781 146.625 C 280.441406 146.203125 281.410156 145.914062 282.3125 145.453125 C 285.113281 144.050781 287.957031 142.761719 291.144531 142.488281 C 291.445312 142.460938 291.789062 142.488281 292.035156 142.347656 C 297.269531 139.417969 303.210938 138.390625 308.785156 136.371094 C 313.71875 134.570312 318.710938 132.824219 323.703125 131.136719 C 330.171875 128.945312 336.8125 127.175781 343.070312 124.3125 C 346.140625 122.90625 349.511719 122 353.027344 122.289062 C 353.324219 122.320312 353.722656 122.457031 353.914062 122.324219 C 356.8125 120.265625 359.992188 121.761719 362.988281 121.738281 C 365.660156 121.726562 368.378906 122.46875 370.3125 124.976562 C 371.253906 126.183594 371.027344 126.910156 370.398438 127.867188 C 368.988281 130.011719 366.96875 131.550781 364.890625 132.976562 C 363.652344 133.835938 362.316406 134.605469 360.933594 135.1875 C 353.226562 138.445312 345.738281 142.222656 337.902344 145.210938 C 334.523438 146.5 331.269531 148.132812 327.957031 149.601562 C 319.015625 153.574219 310.03125 157.441406 301.148438 161.527344 C 291.976562 165.734375 282.921875 170.191406 273.980469 174.875 C 267.542969 178.25 261.0625 181.539062 254.625 184.894531 C 245.148438 189.835938 235.6875 194.832031 226.222656 199.804688 C 212.378906 207.082031 198.574219 214.441406 184.828125 221.902344 C 175.875 226.761719 167.160156 232.082031 158.398438 237.265625 C 147.101562 243.953125 136.207031 251.269531 125.335938 258.617188 C 115.050781 265.566406 104.910156 272.714844 94.796875 279.914062 C 84.03125 287.585938 73.558594 295.683594 62.355469 302.707031 C 59.65625 304.394531 56.484375 305.355469 53.527344 306.625 C 53.257812 306.742188 52.9375 306.78125 52.640625 306.773438 C 49.316406 306.625 48.792969 306.527344 46.882812 307.507812 C 45.605469 308.164062 44.589844 308.425781 43.382812 307.535156 C 42.902344 307.175781 42.261719 307.089844 41.636719 307.175781 C 41.121094 307.25 40.4375 307.253906 40.242188 306.828125 C 39.167969 304.40625 36.195312 303.628906 35.402344 300.84375 C 34.988281 299.386719 34.039062 297.917969 32.816406 296.820312 C 31.59375 295.722656 31.3125 294.304688 31.105469 292.75 C 30.492188 288.1875 32.40625 284.128906 33.628906 279.945312 C 34.085938 278.382812 35.472656 277.300781 36.566406 276.121094 C 41.433594 270.871094 46.425781 265.734375 51.433594 260.617188 C 56.4375 255.5 61.382812 250.328125 66.539062 245.367188 C 68.5625 243.421875 70.382812 241.207031 73.074219 240.089844 C 73.699219 239.828125 73.828125 239.203125 74.164062 238.714844 C 75.128906 237.300781 75.789062 235.347656 78.214844 236.199219 C 78.433594 236.273438 79.121094 235.820312 79.132812 235.566406 C 79.339844 232.914062 81.6875 231.855469 83.128906 230.136719 C 84.425781 228.582031 86.375 227.71875 87.585938 226.066406 C 88.484375 224.847656 90.144531 226.109375 91.113281 224.847656 C 91.925781 223.789062 91.796875 222.332031 92.945312 221.441406 C 94.453125 220.28125 95.988281 219.179688 97.71875 218.394531 C 98.367188 218.097656 99.058594 217.839844 99.234375 217.046875 C 99.847656 214.148438 102.035156 213.1875 104.785156 212.738281 Z M 104.785156 212.738281 " fill-opacity="1" fill-rule="nonzero"/></g></g></g><g fill="#ffffff" fill-opacity="0.2392"><g transform="translate(117.741465, 230.541271)"><g><path d="M 153.15625 24 C 145.8125 27.664062 138 29.5 129.71875 29.5 C 122.382812 29.5 115.703125 28.367188 109.671875 26.109375 C 96.691406 21.316406 85.632812 11.957031 76.5 -1.96875 C 74.15625 -5.363281 69.78125 -11.859375 63.375 -21.453125 C 56.976562 -31.054688 52.835938 -37.175781 50.953125 -39.8125 C 47.660156 -44.976562 45.023438 -47.800781 43.046875 -48.28125 L 43.046875 -49.6875 C 43.140625 -49.6875 43.257812 -49.6875 43.40625 -49.6875 C 43.550781 -49.6875 43.71875 -49.6875 43.90625 -49.6875 C 44.09375 -49.6875 44.28125 -49.6875 44.46875 -49.6875 C 44.65625 -49.6875 44.890625 -49.6875 45.171875 -49.6875 C 45.453125 -49.6875 45.6875 -49.6875 45.875 -49.6875 C 50.675781 -49.6875 55.097656 -50.769531 59.140625 -52.9375 C 65.253906 -56.320312 68.3125 -62.578125 68.3125 -71.703125 C 68.3125 -78.390625 66.429688 -83.539062 62.671875 -87.15625 C 58.910156 -90.78125 54.394531 -92.59375 49.125 -92.59375 L 38.390625 -92.59375 L 38.390625 -10.296875 C 38.390625 -7.859375 39.285156 -5.765625 41.078125 -4.015625 C 42.867188 -2.273438 44.984375 -1.40625 47.421875 -1.40625 L 49.265625 -1.40625 L 49.265625 0 L 6.359375 0 L 6.359375 -1.40625 L 8.1875 -1.40625 C 10.539062 -1.40625 12.609375 -2.253906 14.390625 -3.953125 C 16.179688 -5.648438 17.125 -7.71875 17.21875 -10.15625 L 17.21875 -88.5 C 17.125 -90.945312 16.207031 -93.039062 14.46875 -94.78125 C 12.726562 -96.519531 10.632812 -97.390625 8.1875 -97.390625 L 6.359375 -97.390625 L 6.359375 -98.8125 L 54.765625 -98.8125 C 66.910156 -98.8125 76.320312 -96.035156 83 -90.484375 C 88.269531 -86.148438 90.90625 -80.03125 90.90625 -72.125 C 90.90625 -64.226562 88.335938 -57.804688 83.203125 -52.859375 C 78.078125 -47.921875 72.222656 -45.453125 65.640625 -45.453125 C 65.078125 -45.453125 64.460938 -45.5 63.796875 -45.59375 C 67.660156 -43.519531 70.882812 -41.210938 73.46875 -38.671875 C 76.0625 -36.128906 78.320312 -33.726562 80.25 -31.46875 C 82.175781 -29.21875 83.820312 -27.222656 85.1875 -25.484375 C 86.550781 -23.742188 88.363281 -21.4375 90.625 -18.5625 C 92.882812 -15.6875 95.234375 -12.695312 97.671875 -9.59375 C 100.117188 -6.488281 102.828125 -3.3125 105.796875 -0.0625 C 108.765625 3.175781 112.054688 6.253906 115.671875 9.171875 C 119.296875 12.085938 122.992188 14.488281 126.765625 16.375 C 134.753906 20.414062 143.550781 22.484375 153.15625 22.578125 Z M 153.15625 24 "/></g></g></g><g fill="#ffffff" fill-opacity="1"><g transform="translate(111.132098, 227.59859)"><g><path d="M 153.15625 24 C 145.8125 27.664062 138 29.5 129.71875 29.5 C 122.382812 29.5 115.703125 28.367188 109.671875 26.109375 C 96.691406 21.316406 85.632812 11.957031 76.5 -1.96875 C 74.15625 -5.363281 69.78125 -11.859375 63.375 -21.453125 C 56.976562 -31.054688 52.835938 -37.175781 50.953125 -39.8125 C 47.660156 -44.976562 45.023438 -47.800781 43.046875 -48.28125 L 43.046875 -49.6875 C 43.140625 -49.6875 43.257812 -49.6875 43.40625 -49.6875 C 43.550781 -49.6875 43.71875 -49.6875 43.90625 -49.6875 C 44.09375 -49.6875 44.28125 -49.6875 44.46875 -49.6875 C 44.65625 -49.6875 44.890625 -49.6875 45.171875 -49.6875 C 45.453125 -49.6875 45.6875 -49.6875 45.875 -49.6875 C 50.675781 -49.6875 55.097656 -50.769531 59.140625 -52.9375 C 65.253906 -56.320312 68.3125 -62.578125 68.3125 -71.703125 C 68.3125 -78.390625 66.429688 -83.539062 62.671875 -87.15625 C 58.910156 -90.78125 54.394531 -92.59375 49.125 -92.59375 L 38.390625 -92.59375 L 38.390625 -10.296875 C 38.390625 -7.859375 39.285156 -5.765625 41.078125 -4.015625 C 42.867188 -2.273438 44.984375 -1.40625 47.421875 -1.40625 L 49.265625 -1.40625 L 49.265625 0 L 6.359375 0 L 6.359375 -1.40625 L 8.1875 -1.40625 C 10.539062 -1.40625 12.609375 -2.253906 14.390625 -3.953125 C 16.179688 -5.648438 17.125 -7.71875 17.21875 -10.15625 L 17.21875 -88.5 C 17.125 -90.945312 16.207031 -93.039062 14.46875 -94.78125 C 12.726562 -96.519531 10.632812 -97.390625 8.1875 -97.390625 L 6.359375 -97.390625 L 6.359375 -98.8125 L 54.765625 -98.8125 C 66.910156 -98.8125 76.320312 -96.035156 83 -90.484375 C 88.269531 -86.148438 90.90625 -80.03125 90.90625 -72.125 C 90.90625 -64.226562 88.335938 -57.804688 83.203125 -52.859375 C 78.078125 -47.921875 72.222656 -45.453125 65.640625 -45.453125 C 65.078125 -45.453125 64.460938 -45.5 63.796875 -45.59375 C 67.660156 -43.519531 70.882812 -41.210938 73.46875 -38.671875 C 76.0625 -36.128906 78.320312 -33.726562 80.25 -31.46875 C 82.175781 -29.21875 83.820312 -27.222656 85.1875 -25.484375 C 86.550781 -23.742188 88.363281 -21.4375 90.625 -18.5625 C 92.882812 -15.6875 95.234375 -12.695312 97.671875 -9.59375 C 100.117188 -6.488281 102.828125 -3.3125 105.796875 -0.0625 C 108.765625 3.175781 112.054688 6.253906 115.671875 9.171875 C 119.296875 12.085938 122.992188 14.488281 126.765625 16.375 C 134.753906 20.414062 143.550781 22.484375 153.15625 22.578125 Z M 153.15625 24 "/></g></g></g><g fill="#ffffff" fill-opacity="0.2392"><g transform="translate(61.513584, 193.654077)"><g><path d="M 57.734375 -93.015625 L 57.734375 -10.15625 C 57.828125 -7.71875 58.742188 -5.648438 60.484375 -3.953125 C 62.222656 -2.253906 64.316406 -1.40625 66.765625 -1.40625 L 68.453125 -1.40625 L 68.609375 0 L 25.6875 0 L 25.6875 -1.40625 L 27.53125 -1.40625 C 29.875 -1.40625 31.914062 -2.253906 33.65625 -3.953125 C 35.40625 -5.648438 36.375 -7.671875 36.5625 -10.015625 L 36.5625 -93.015625 L 17.5 -93.015625 C 13.175781 -92.921875 9.742188 -91.554688 7.203125 -88.921875 C 4.660156 -86.285156 3.390625 -82.851562 3.390625 -78.625 L 3.390625 -76.9375 L 1.96875 -76.9375 L 1.96875 -101.484375 C 5.832031 -99.890625 11.382812 -99.046875 18.625 -98.953125 L 75.515625 -98.953125 C 78.429688 -98.953125 81.609375 -99.234375 85.046875 -99.796875 C 88.484375 -100.359375 90.859375 -100.921875 92.171875 -101.484375 L 92.171875 -76.9375 L 90.765625 -76.9375 L 90.765625 -78.625 C 90.765625 -84.457031 88.550781 -88.597656 84.125 -91.046875 C 82.0625 -92.265625 79.566406 -92.921875 76.640625 -93.015625 Z M 57.734375 -93.015625 "/></g></g></g><g fill="#ffffff" fill-opacity="1"><g transform="translate(54.904214, 190.711396)"><g><path d="M 57.734375 -93.015625 L 57.734375 -10.15625 C 57.828125 -7.71875 58.742188 -5.648438 60.484375 -3.953125 C 62.222656 -2.253906 64.316406 -1.40625 66.765625 -1.40625 L 68.453125 -1.40625 L 68.609375 0 L 25.6875 0 L 25.6875 -1.40625 L 27.53125 -1.40625 C 29.875 -1.40625 31.914062 -2.253906 33.65625 -3.953125 C 35.40625 -5.648438 36.375 -7.671875 36.5625 -10.015625 L 36.5625 -93.015625 L 17.5 -93.015625 C 13.175781 -92.921875 9.742188 -91.554688 7.203125 -88.921875 C 4.660156 -86.285156 3.390625 -82.851562 3.390625 -78.625 L 3.390625 -76.9375 L 1.96875 -76.9375 L 1.96875 -101.484375 C 5.832031 -99.890625 11.382812 -99.046875 18.625 -98.953125 L 75.515625 -98.953125 C 78.429688 -98.953125 81.609375 -99.234375 85.046875 -99.796875 C 88.484375 -100.359375 90.859375 -100.921875 92.171875 -101.484375 L 92.171875 -76.9375 L 90.765625 -76.9375 L 90.765625 -78.625 C 90.765625 -84.457031 88.550781 -88.597656 84.125 -91.046875 C 82.0625 -92.265625 79.566406 -92.921875 76.640625 -93.015625 Z M 57.734375 -93.015625 "/></g></g></g><g fill="#ffffff" fill-opacity="0.2392"><g transform="translate(221.400619, 255.524693)"><g><path d="M 57.03125 -1.40625 L 58.859375 -1.40625 L 58.859375 0 L 15.953125 0 L 15.953125 -1.40625 L 17.78125 -1.40625 C 20.226562 -1.40625 22.320312 -2.273438 24.0625 -4.015625 C 25.800781 -5.765625 26.71875 -7.859375 26.8125 -10.296875 L 26.8125 -93.015625 L 13.40625 -92.453125 C 4.5625 -92.078125 0.140625 -88.785156 0.140625 -82.578125 C 0.140625 -80.035156 1.007812 -77.894531 2.75 -76.15625 C 4.488281 -74.414062 6.910156 -73.546875 10.015625 -73.546875 C 10.296875 -73.546875 10.582031 -73.546875 10.875 -73.546875 L 10.875 -72.703125 C 8.988281 -72.035156 7.382812 -71.703125 6.0625 -71.703125 C 1.832031 -71.703125 -1.410156 -73.207031 -3.671875 -76.21875 C -5.265625 -78.289062 -6.0625 -80.644531 -6.0625 -83.28125 C -6.0625 -87.425781 -4.4375 -90.835938 -1.1875 -93.515625 C 2.050781 -96.191406 7.054688 -97.769531 13.828125 -98.25 C 15.054688 -98.34375 19.007812 -98.53125 25.6875 -98.8125 C 40.9375 -99.375 51.992188 -100.3125 58.859375 -101.625 L 59.140625 -100.21875 C 55.097656 -99.5625 52.253906 -98.195312 50.609375 -96.125 C 48.960938 -94.050781 48.09375 -90.992188 48 -86.953125 L 48 -10.296875 C 48.09375 -7.859375 49.007812 -5.765625 50.75 -4.015625 C 52.488281 -2.273438 54.582031 -1.40625 57.03125 -1.40625 Z M 57.03125 -1.40625 "/></g></g></g><g fill="#ffffff" fill-opacity="1"><g transform="translate(214.791245, 252.582012)"><g><path d="M 57.03125 -1.40625 L 58.859375 -1.40625 L 58.859375 0 L 15.953125 0 L 15.953125 -1.40625 L 17.78125 -1.40625 C 20.226562 -1.40625 22.320312 -2.273438 24.0625 -4.015625 C 25.800781 -5.765625 26.71875 -7.859375 26.8125 -10.296875 L 26.8125 -93.015625 L 13.40625 -92.453125 C 4.5625 -92.078125 0.140625 -88.785156 0.140625 -82.578125 C 0.140625 -80.035156 1.007812 -77.894531 2.75 -76.15625 C 4.488281 -74.414062 6.910156 -73.546875 10.015625 -73.546875 C 10.296875 -73.546875 10.582031 -73.546875 10.875 -73.546875 L 10.875 -72.703125 C 8.988281 -72.035156 7.382812 -71.703125 6.0625 -71.703125 C 1.832031 -71.703125 -1.410156 -73.207031 -3.671875 -76.21875 C -5.265625 -78.289062 -6.0625 -80.644531 -6.0625 -83.28125 C -6.0625 -87.425781 -4.4375 -90.835938 -1.1875 -93.515625 C 2.050781 -96.191406 7.054688 -97.769531 13.828125 -98.25 C 15.054688 -98.34375 19.007812 -98.53125 25.6875 -98.8125 C 40.9375 -99.375 51.992188 -100.3125 58.859375 -101.625 L 59.140625 -100.21875 C 55.097656 -99.5625 52.253906 -98.195312 50.609375 -96.125 C 48.960938 -94.050781 48.09375 -90.992188 48 -86.953125 L 48 -10.296875 C 48.09375 -7.859375 49.007812 -5.765625 50.75 -4.015625 C 52.488281 -2.273438 54.582031 -1.40625 57.03125 -1.40625 Z M 57.03125 -1.40625 "/></g></g></g><g fill="#ffffff" fill-opacity="0.2392"><g transform="translate(191.444493, 150.86155)"><g><path d="M 41 -55.203125 C 39.519531 -58.328125 38.78125 -61.3125 38.78125 -64.15625 C 38.78125 -67 39.148438 -69.632812 39.890625 -72.0625 C 40.628906 -74.488281 41.863281 -76.875 43.59375 -79.21875 C 45.320312 -81.570312 47.75 -83.53125 50.875 -85.09375 C 55.15625 -87.3125 60.300781 -88.421875 66.3125 -88.421875 C 74.21875 -88.421875 81.710938 -86.40625 88.796875 -82.375 C 98.097656 -77.101562 104.5625 -69.816406 108.1875 -60.515625 C 110.25 -55.410156 111.28125 -49.9375 111.28125 -44.09375 C 111.28125 -30.34375 106.316406 -19.265625 96.390625 -10.859375 C 86.472656 -2.460938 73.546875 1.734375 57.609375 1.734375 C 41.679688 1.734375 28.710938 -2.460938 18.703125 -10.859375 C 8.703125 -19.265625 3.703125 -30.300781 3.703125 -43.96875 C 3.703125 -54.175781 6.601562 -63.046875 12.40625 -70.578125 C 18.21875 -78.109375 26.0625 -83.234375 35.9375 -85.953125 L 36.671875 -84.84375 C 32.472656 -81.300781 29.300781 -76.113281 27.15625 -69.28125 C 25.019531 -62.445312 23.953125 -55.078125 23.953125 -47.171875 C 23.953125 -33.835938 27.039062 -23.21875 33.21875 -15.3125 C 39.394531 -7.40625 47.484375 -3.453125 57.484375 -3.453125 C 67.492188 -3.453125 75.5625 -7.175781 81.6875 -14.625 C 87.820312 -22.082031 90.890625 -31.945312 90.890625 -44.21875 C 90.890625 -51.625 89.757812 -58.3125 87.5 -64.28125 C 85.238281 -70.25 81.96875 -74.859375 77.6875 -78.109375 C 73.40625 -81.359375 68.628906 -82.984375 63.359375 -82.984375 C 57.515625 -82.984375 52.78125 -81.460938 49.15625 -78.421875 C 44.050781 -74.054688 41.5 -68.5 41.5 -61.75 C 41.5 -59.601562 41.785156 -57.421875 42.359375 -55.203125 Z M 41 -55.203125 "/></g></g></g><g fill="#ffffff" fill-opacity="1"><g transform="translate(185.662053, 148.287043)"><g><path d="M 41 -55.203125 C 39.519531 -58.328125 38.78125 -61.3125 38.78125 -64.15625 C 38.78125 -67 39.148438 -69.632812 39.890625 -72.0625 C 40.628906 -74.488281 41.863281 -76.875 43.59375 -79.21875 C 45.320312 -81.570312 47.75 -83.53125 50.875 -85.09375 C 55.15625 -87.3125 60.300781 -88.421875 66.3125 -88.421875 C 74.21875 -88.421875 81.710938 -86.40625 88.796875 -82.375 C 98.097656 -77.101562 104.5625 -69.816406 108.1875 -60.515625 C 110.25 -55.410156 111.28125 -49.9375 111.28125 -44.09375 C 111.28125 -30.34375 106.316406 -19.265625 96.390625 -10.859375 C 86.472656 -2.460938 73.546875 1.734375 57.609375 1.734375 C 41.679688 1.734375 28.710938 -2.460938 18.703125 -10.859375 C 8.703125 -19.265625 3.703125 -30.300781 3.703125 -43.96875 C 3.703125 -54.175781 6.601562 -63.046875 12.40625 -70.578125 C 18.21875 -78.109375 26.0625 -83.234375 35.9375 -85.953125 L 36.671875 -84.84375 C 32.472656 -81.300781 29.300781 -76.113281 27.15625 -69.28125 C 25.019531 -62.445312 23.953125 -55.078125 23.953125 -47.171875 C 23.953125 -33.835938 27.039062 -23.21875 33.21875 -15.3125 C 39.394531 -7.40625 47.484375 -3.453125 57.484375 -3.453125 C 67.492188 -3.453125 75.5625 -7.175781 81.6875 -14.625 C 87.820312 -22.082031 90.890625 -31.945312 90.890625 -44.21875 C 90.890625 -51.625 89.757812 -58.3125 87.5 -64.28125 C 85.238281 -70.25 81.96875 -74.859375 77.6875 -78.109375 C 73.40625 -81.359375 68.628906 -82.984375 63.359375 -82.984375 C 57.515625 -82.984375 52.78125 -81.460938 49.15625 -78.421875 C 44.050781 -74.054688 41.5 -68.5 41.5 -61.75 C 41.5 -59.601562 41.785156 -57.421875 42.359375 -55.203125 Z M 41 -55.203125 "/></g></g></g></svg>